# xmcd CD database file
#
# Track frame offsets:
#	150
#	12877
#	23812
#	40939
#	58842
#	70690
#	92752
#	107245
#	119892
#	141975
#	167297
#
# Disc length: 2439 seconds
#
# Revision: 0
# Processed by: cddbd v1.4PL0 Copyright (c) Steve Scherf et al.
# Submitted via: CDex 1.50Beta3
#
DISCID=9509850b
DTITLE=Swing Kings - Live
DYEAR=1900
DGENRE=Jazz
TTITLE0=Chatanooga Choo Choo
TTITLE1=Tain't no sin to dance around in your bones
TTITLE2=Minnie the moocher
TTITLE3=It don't mean a thing if it ain't got that swing
TTITLE4=Stompin' at the Savoy
TTITLE5=Just a gigolo/I ain't got nobody
TTITLE6=Choo Choo Ch boogie
TTITLE7=Two o'clock jump
TTITLE8=Don't get around much anymore
TTITLE9=Come rain or come shine
TTITLE10=Peter Gunn
EXTD=
EXTT0=
EXTT1=
EXTT2=
EXTT3=
EXTT4=
EXTT5=
EXTT6=
EXTT7=
EXTT8=
EXTT9=
EXTT10=
PLAYORDER=
